G04 (created by PCBNEW (22-Jun-2014 BZR 4027)-stable) date Fri 04 May 2018 06:06:48 PM CDT*
%MOIN*%
G04 Gerber Fmt 3.4, Leading zero omitted, Abs format*
%FSLAX34Y34*%
G01*
G70*
G90*
G04 APERTURE LIST*
%ADD10C,0.00590551*%
%ADD11C,0.006*%
%ADD12C,0.01*%
G04 APERTURE END LIST*
G54D10*
G54D11*
X70978Y-39357D02*
X71021Y-39371D01*
X71092Y-39371D01*
X71121Y-39357D01*
X71135Y-39342D01*
X71150Y-39314D01*
X71150Y-39285D01*
X71135Y-39257D01*
X71121Y-39242D01*
X71092Y-39228D01*
X71035Y-39214D01*
X71007Y-39200D01*
X70992Y-39185D01*
X70978Y-39157D01*
X70978Y-39128D01*
X70992Y-39100D01*
X71007Y-39085D01*
X71035Y-39071D01*
X71107Y-39071D01*
X71150Y-39085D01*
X71278Y-39257D02*
X71507Y-39257D01*
X71978Y-39357D02*
X72021Y-39371D01*
X72092Y-39371D01*
X72121Y-39357D01*
X72135Y-39342D01*
X72150Y-39314D01*
X72150Y-39285D01*
X72135Y-39257D01*
X72121Y-39242D01*
X72092Y-39228D01*
X72035Y-39214D01*
X72007Y-39200D01*
X71992Y-39185D01*
X71978Y-39157D01*
X71978Y-39128D01*
X71992Y-39100D01*
X72007Y-39085D01*
X72035Y-39071D01*
X72107Y-39071D01*
X72150Y-39085D01*
X72278Y-39257D02*
X72507Y-39257D01*
X72392Y-39371D02*
X72392Y-39142D01*
X71107Y-36714D02*
X71007Y-36714D01*
X71007Y-36871D02*
X71007Y-36571D01*
X71150Y-36571D01*
X71264Y-36757D02*
X71492Y-36757D01*
X72107Y-36714D02*
X72007Y-36714D01*
X72007Y-36871D02*
X72007Y-36571D01*
X72150Y-36571D01*
X72264Y-36757D02*
X72492Y-36757D01*
X72378Y-36871D02*
X72378Y-36642D01*
G54D12*
X68000Y-38500D02*
X64750Y-38500D01*
X64750Y-37500D02*
X68000Y-37500D01*
X67750Y-38900D02*
X65250Y-38900D01*
X65250Y-37100D02*
X67750Y-37100D01*
X68650Y-38000D02*
G75*
G03X67750Y-37100I-900J0D01*
G74*
G01*
X67750Y-38900D02*
G75*
G03X68650Y-38000I0J900D01*
G74*
G01*
X64350Y-38000D02*
G75*
G03X65250Y-38900I900J0D01*
G74*
G01*
X65250Y-37100D02*
G75*
G03X64350Y-38000I0J-900D01*
G74*
G01*
X68650Y-38000D02*
G75*
G03X67750Y-37100I-900J0D01*
G74*
G01*
X68000Y-37500D02*
X68000Y-38500D01*
X64750Y-38500D02*
X64750Y-37500D01*
X63750Y-39000D02*
X63750Y-37000D01*
X69250Y-37000D02*
X69250Y-39000D01*
X69250Y-38000D02*
X70250Y-38000D01*
X62750Y-38000D02*
X63750Y-38000D01*
X63750Y-37000D02*
X69250Y-37000D01*
X69250Y-39000D02*
X63750Y-39000D01*
G54D10*
G36*
X61200Y-37200D02*
X60800Y-37200D01*
X60800Y-36800D01*
X61200Y-36800D01*
X61200Y-37200D01*
X61200Y-37200D01*
G37*
G54D12*
X61200Y-37200D02*
X60800Y-37200D01*
X60800Y-36800D01*
X61200Y-36800D01*
X61200Y-37200D01*
G54D10*
G36*
X61950Y-37200D02*
X61550Y-37200D01*
X61550Y-36800D01*
X61950Y-36800D01*
X61950Y-37200D01*
X61950Y-37200D01*
G37*
G54D12*
X61950Y-37200D02*
X61550Y-37200D01*
X61550Y-36800D01*
X61950Y-36800D01*
X61950Y-37200D01*
G54D10*
G36*
X62700Y-37200D02*
X62300Y-37200D01*
X62300Y-36800D01*
X62700Y-36800D01*
X62700Y-37200D01*
X62700Y-37200D01*
G37*
G54D12*
X62700Y-37200D02*
X62300Y-37200D01*
X62300Y-36800D01*
X62700Y-36800D01*
X62700Y-37200D01*
G54D10*
G36*
X63450Y-37200D02*
X63050Y-37200D01*
X63050Y-36800D01*
X63450Y-36800D01*
X63450Y-37200D01*
X63450Y-37200D01*
G37*
G54D12*
X63450Y-37200D02*
X63050Y-37200D01*
X63050Y-36800D01*
X63450Y-36800D01*
X63450Y-37200D01*
G54D10*
G36*
X61200Y-39200D02*
X60800Y-39200D01*
X60800Y-38800D01*
X61200Y-38800D01*
X61200Y-39200D01*
X61200Y-39200D01*
G37*
G54D12*
X61200Y-39200D02*
X60800Y-39200D01*
X60800Y-38800D01*
X61200Y-38800D01*
X61200Y-39200D01*
G54D10*
G36*
X61950Y-39200D02*
X61550Y-39200D01*
X61550Y-38800D01*
X61950Y-38800D01*
X61950Y-39200D01*
X61950Y-39200D01*
G37*
G54D12*
X61950Y-39200D02*
X61550Y-39200D01*
X61550Y-38800D01*
X61950Y-38800D01*
X61950Y-39200D01*
G54D10*
G36*
X62700Y-39200D02*
X62300Y-39200D01*
X62300Y-38800D01*
X62700Y-38800D01*
X62700Y-39200D01*
X62700Y-39200D01*
G37*
G54D12*
X62700Y-39200D02*
X62300Y-39200D01*
X62300Y-38800D01*
X62700Y-38800D01*
X62700Y-39200D01*
G54D10*
G36*
X63450Y-39200D02*
X63050Y-39200D01*
X63050Y-38800D01*
X63450Y-38800D01*
X63450Y-39200D01*
X63450Y-39200D01*
G37*
G54D12*
X63450Y-39200D02*
X63050Y-39200D01*
X63050Y-38800D01*
X63450Y-38800D01*
X63450Y-39200D01*
M02*
