G04 (created by PCBNEW (22-Jun-2014 BZR 4027)-stable) date Fri 04 May 2018 06:06:48 PM CDT*
%MOIN*%
G04 Gerber Fmt 3.4, Leading zero omitted, Abs format*
%FSLAX34Y34*%
G01*
G70*
G90*
G04 APERTURE LIST*
%ADD10C,0.00590551*%
%ADD11C,0.059*%
%ADD12C,0.079*%
%ADD13C,0.069*%
%ADD14C,0.01*%
G04 APERTURE END LIST*
G54D10*
G54D11*
X65250Y-38000D03*
X67250Y-38000D03*
X65750Y-38000D03*
X69000Y-38000D03*
X64000Y-38000D03*
G54D12*
X61750Y-38000D03*
X72250Y-38500D03*
X72250Y-37500D03*
X71250Y-37500D03*
X71250Y-38500D03*
G54D13*
X62750Y-38000D03*
X70250Y-38000D03*
G54D14*
X69000Y-38500D02*
X67250Y-38500D01*
X67250Y-38500D02*
X67250Y-38000D01*
X70250Y-38500D02*
X69000Y-38500D01*
X69000Y-38500D02*
X69000Y-38000D01*
X69000Y-37500D02*
X67250Y-37500D01*
X67250Y-37500D02*
X67250Y-38000D01*
X70250Y-37500D02*
X69000Y-37500D01*
X69000Y-37500D02*
X69000Y-38000D01*
X71250Y-38500D02*
X70250Y-38500D01*
X70250Y-38500D02*
X70250Y-38000D01*
X71250Y-37500D02*
X70250Y-37500D01*
X70250Y-37500D02*
X70250Y-38000D01*
X64000Y-37250D02*
X62750Y-37250D01*
X62750Y-37250D02*
X62750Y-38000D01*
X65250Y-37250D02*
X64000Y-37250D01*
X64000Y-37250D02*
X64000Y-38000D01*
X65750Y-37250D02*
X65250Y-37250D01*
X65250Y-37250D02*
X65250Y-38000D01*
X72250Y-37500D02*
X71500Y-36750D01*
X65750Y-37250D02*
X65750Y-38000D01*
X70500Y-37250D02*
X65750Y-37250D01*
X71000Y-36750D02*
X70500Y-37250D01*
X71500Y-36750D02*
X71000Y-36750D01*
X64000Y-38750D02*
X62750Y-38750D01*
X62750Y-38750D02*
X62750Y-38000D01*
X65250Y-38750D02*
X64000Y-38750D01*
X64000Y-38750D02*
X64000Y-38000D01*
X65750Y-38750D02*
X65250Y-38750D01*
X65250Y-38750D02*
X65250Y-38000D01*
X72250Y-38500D02*
X71500Y-39250D01*
X65750Y-38750D02*
X65750Y-38000D01*
X70500Y-38750D02*
X65750Y-38750D01*
X71000Y-39250D02*
X70500Y-38750D01*
X71500Y-39250D02*
X71000Y-39250D01*
G54D10*
G36*
X70775Y-39450D02*
X62133Y-39450D01*
X62133Y-38454D01*
X61750Y-38070D01*
X61679Y-38141D01*
X61679Y-38000D01*
X61295Y-37616D01*
X61190Y-37655D01*
X61100Y-37895D01*
X61110Y-38151D01*
X61190Y-38344D01*
X61295Y-38383D01*
X61679Y-38000D01*
X61679Y-38141D01*
X61366Y-38454D01*
X61405Y-38559D01*
X61645Y-38649D01*
X61901Y-38639D01*
X62094Y-38559D01*
X62133Y-38454D01*
X62133Y-39450D01*
X60770Y-39450D01*
X60550Y-39229D01*
X60550Y-36770D01*
X60770Y-36550D01*
X70775Y-36550D01*
X70375Y-36950D01*
X65750Y-36950D01*
X65250Y-36950D01*
X64000Y-36950D01*
X62750Y-36950D01*
X62635Y-36972D01*
X62537Y-37037D01*
X62472Y-37135D01*
X62450Y-37250D01*
X62450Y-37480D01*
X62413Y-37495D01*
X62268Y-37639D01*
X62204Y-37616D01*
X62133Y-37686D01*
X62133Y-37545D01*
X62094Y-37440D01*
X61854Y-37350D01*
X61598Y-37360D01*
X61405Y-37440D01*
X61366Y-37545D01*
X61750Y-37929D01*
X62133Y-37545D01*
X62133Y-37686D01*
X61820Y-38000D01*
X62204Y-38383D01*
X62268Y-38360D01*
X62412Y-38504D01*
X62450Y-38519D01*
X62450Y-38750D01*
X62472Y-38864D01*
X62537Y-38962D01*
X62635Y-39027D01*
X62750Y-39050D01*
X64000Y-39050D01*
X65250Y-39050D01*
X65750Y-39050D01*
X70375Y-39050D01*
X70775Y-39450D01*
X70775Y-39450D01*
G37*
G54D14*
X70775Y-39450D02*
X62133Y-39450D01*
X62133Y-38454D01*
X61750Y-38070D01*
X61679Y-38141D01*
X61679Y-38000D01*
X61295Y-37616D01*
X61190Y-37655D01*
X61100Y-37895D01*
X61110Y-38151D01*
X61190Y-38344D01*
X61295Y-38383D01*
X61679Y-38000D01*
X61679Y-38141D01*
X61366Y-38454D01*
X61405Y-38559D01*
X61645Y-38649D01*
X61901Y-38639D01*
X62094Y-38559D01*
X62133Y-38454D01*
X62133Y-39450D01*
X60770Y-39450D01*
X60550Y-39229D01*
X60550Y-36770D01*
X60770Y-36550D01*
X70775Y-36550D01*
X70375Y-36950D01*
X65750Y-36950D01*
X65250Y-36950D01*
X64000Y-36950D01*
X62750Y-36950D01*
X62635Y-36972D01*
X62537Y-37037D01*
X62472Y-37135D01*
X62450Y-37250D01*
X62450Y-37480D01*
X62413Y-37495D01*
X62268Y-37639D01*
X62204Y-37616D01*
X62133Y-37686D01*
X62133Y-37545D01*
X62094Y-37440D01*
X61854Y-37350D01*
X61598Y-37360D01*
X61405Y-37440D01*
X61366Y-37545D01*
X61750Y-37929D01*
X62133Y-37545D01*
X62133Y-37686D01*
X61820Y-38000D01*
X62204Y-38383D01*
X62268Y-38360D01*
X62412Y-38504D01*
X62450Y-38519D01*
X62450Y-38750D01*
X62472Y-38864D01*
X62537Y-38962D01*
X62635Y-39027D01*
X62750Y-39050D01*
X64000Y-39050D01*
X65250Y-39050D01*
X65750Y-39050D01*
X70375Y-39050D01*
X70775Y-39450D01*
M02*
