G04 (created by PCBNEW (22-Jun-2014 BZR 4027)-stable) date Fri 04 May 2018 06:06:48 PM CDT*
%MOIN*%
G04 Gerber Fmt 3.4, Leading zero omitted, Abs format*
%FSLAX34Y34*%
G01*
G70*
G90*
G04 APERTURE LIST*
%ADD10C,0.00590551*%
%ADD11C,0.006*%
G04 APERTURE END LIST*
G54D10*
G54D11*
X70007Y-37121D02*
X70107Y-36978D01*
X70178Y-37121D02*
X70178Y-36821D01*
X70064Y-36821D01*
X70035Y-36835D01*
X70021Y-36850D01*
X70007Y-36878D01*
X70007Y-36921D01*
X70021Y-36950D01*
X70035Y-36964D01*
X70064Y-36978D01*
X70178Y-36978D01*
X69764Y-37107D02*
X69792Y-37121D01*
X69850Y-37121D01*
X69878Y-37107D01*
X69892Y-37078D01*
X69892Y-36964D01*
X69878Y-36935D01*
X69850Y-36921D01*
X69792Y-36921D01*
X69764Y-36935D01*
X69750Y-36964D01*
X69750Y-36992D01*
X69892Y-37021D01*
X69635Y-37107D02*
X69607Y-37121D01*
X69550Y-37121D01*
X69521Y-37107D01*
X69507Y-37078D01*
X69507Y-37064D01*
X69521Y-37035D01*
X69550Y-37021D01*
X69592Y-37021D01*
X69621Y-37007D01*
X69635Y-36978D01*
X69635Y-36964D01*
X69621Y-36935D01*
X69592Y-36921D01*
X69550Y-36921D01*
X69521Y-36935D01*
X69378Y-37121D02*
X69378Y-36921D01*
X69378Y-36821D02*
X69392Y-36835D01*
X69378Y-36850D01*
X69364Y-36835D01*
X69378Y-36821D01*
X69378Y-36850D01*
X69250Y-37107D02*
X69221Y-37121D01*
X69164Y-37121D01*
X69135Y-37107D01*
X69121Y-37078D01*
X69121Y-37064D01*
X69135Y-37035D01*
X69164Y-37021D01*
X69207Y-37021D01*
X69235Y-37007D01*
X69250Y-36978D01*
X69250Y-36964D01*
X69235Y-36935D01*
X69207Y-36921D01*
X69164Y-36921D01*
X69135Y-36935D01*
X69035Y-36921D02*
X68921Y-36921D01*
X68992Y-36821D02*
X68992Y-37078D01*
X68978Y-37107D01*
X68950Y-37121D01*
X68921Y-37121D01*
X68778Y-37121D02*
X68807Y-37107D01*
X68821Y-37092D01*
X68835Y-37064D01*
X68835Y-36978D01*
X68821Y-36950D01*
X68807Y-36935D01*
X68778Y-36921D01*
X68735Y-36921D01*
X68707Y-36935D01*
X68692Y-36950D01*
X68678Y-36978D01*
X68678Y-37064D01*
X68692Y-37092D01*
X68707Y-37107D01*
X68735Y-37121D01*
X68778Y-37121D01*
X68549Y-37121D02*
X68549Y-36921D01*
X68549Y-36978D02*
X68535Y-36950D01*
X68521Y-36935D01*
X68492Y-36921D01*
X68464Y-36921D01*
X68135Y-36921D02*
X68135Y-37221D01*
X68135Y-36935D02*
X68107Y-36921D01*
X68050Y-36921D01*
X68021Y-36935D01*
X68007Y-36950D01*
X67992Y-36978D01*
X67992Y-37064D01*
X68007Y-37092D01*
X68021Y-37107D01*
X68050Y-37121D01*
X68107Y-37121D01*
X68135Y-37107D01*
X67821Y-37121D02*
X67850Y-37107D01*
X67864Y-37078D01*
X67864Y-36821D01*
X67578Y-36921D02*
X67578Y-37121D01*
X67707Y-36921D02*
X67707Y-37078D01*
X67692Y-37107D01*
X67664Y-37121D01*
X67621Y-37121D01*
X67592Y-37107D01*
X67578Y-37092D01*
X67307Y-36921D02*
X67307Y-37164D01*
X67321Y-37192D01*
X67335Y-37207D01*
X67364Y-37221D01*
X67407Y-37221D01*
X67435Y-37207D01*
X67307Y-37107D02*
X67335Y-37121D01*
X67392Y-37121D01*
X67421Y-37107D01*
X67435Y-37092D01*
X67449Y-37064D01*
X67449Y-36978D01*
X67435Y-36950D01*
X67421Y-36935D01*
X67392Y-36921D01*
X67335Y-36921D01*
X67307Y-36935D01*
X66964Y-36921D02*
X66892Y-37121D01*
X66821Y-36921D01*
X66550Y-37121D02*
X66721Y-37121D01*
X66635Y-37121D02*
X66635Y-36821D01*
X66664Y-36864D01*
X66692Y-36892D01*
X66721Y-36907D01*
X66421Y-37092D02*
X66407Y-37107D01*
X66421Y-37121D01*
X66435Y-37107D01*
X66421Y-37092D01*
X66421Y-37121D01*
X66121Y-37121D02*
X66292Y-37121D01*
X66207Y-37121D02*
X66207Y-36821D01*
X66235Y-36864D01*
X66264Y-36892D01*
X66292Y-36907D01*
X70050Y-38921D02*
X70050Y-39164D01*
X70064Y-39192D01*
X70078Y-39207D01*
X70107Y-39221D01*
X70150Y-39221D01*
X70178Y-39207D01*
X70050Y-39107D02*
X70078Y-39121D01*
X70135Y-39121D01*
X70164Y-39107D01*
X70178Y-39092D01*
X70192Y-39064D01*
X70192Y-38978D01*
X70178Y-38950D01*
X70164Y-38935D01*
X70135Y-38921D01*
X70078Y-38921D01*
X70050Y-38935D01*
X69907Y-39121D02*
X69907Y-38921D01*
X69907Y-38821D02*
X69921Y-38835D01*
X69907Y-38850D01*
X69892Y-38835D01*
X69907Y-38821D01*
X69907Y-38850D01*
X69807Y-38921D02*
X69692Y-38921D01*
X69764Y-38821D02*
X69764Y-39078D01*
X69750Y-39107D01*
X69721Y-39121D01*
X69692Y-39121D01*
X69592Y-39121D02*
X69592Y-38821D01*
X69464Y-39121D02*
X69464Y-38964D01*
X69478Y-38935D01*
X69507Y-38921D01*
X69549Y-38921D01*
X69578Y-38935D01*
X69592Y-38950D01*
X69192Y-38921D02*
X69192Y-39121D01*
X69321Y-38921D02*
X69321Y-39078D01*
X69307Y-39107D01*
X69278Y-39121D01*
X69235Y-39121D01*
X69207Y-39107D01*
X69192Y-39092D01*
X69049Y-39121D02*
X69049Y-38821D01*
X69049Y-38935D02*
X69021Y-38921D01*
X68964Y-38921D01*
X68935Y-38935D01*
X68921Y-38950D01*
X68907Y-38978D01*
X68907Y-39064D01*
X68921Y-39092D01*
X68935Y-39107D01*
X68964Y-39121D01*
X69021Y-39121D01*
X69049Y-39107D01*
X68778Y-39092D02*
X68764Y-39107D01*
X68778Y-39121D01*
X68792Y-39107D01*
X68778Y-39092D01*
X68778Y-39121D01*
X68507Y-39107D02*
X68535Y-39121D01*
X68592Y-39121D01*
X68621Y-39107D01*
X68635Y-39092D01*
X68649Y-39064D01*
X68649Y-38978D01*
X68635Y-38950D01*
X68621Y-38935D01*
X68592Y-38921D01*
X68535Y-38921D01*
X68507Y-38935D01*
X68335Y-39121D02*
X68364Y-39107D01*
X68378Y-39092D01*
X68392Y-39064D01*
X68392Y-38978D01*
X68378Y-38950D01*
X68364Y-38935D01*
X68335Y-38921D01*
X68292Y-38921D01*
X68264Y-38935D01*
X68249Y-38950D01*
X68235Y-38978D01*
X68235Y-39064D01*
X68249Y-39092D01*
X68264Y-39107D01*
X68292Y-39121D01*
X68335Y-39121D01*
X68107Y-39121D02*
X68107Y-38921D01*
X68107Y-38950D02*
X68092Y-38935D01*
X68064Y-38921D01*
X68021Y-38921D01*
X67992Y-38935D01*
X67978Y-38964D01*
X67978Y-39121D01*
X67978Y-38964D02*
X67964Y-38935D01*
X67935Y-38921D01*
X67892Y-38921D01*
X67864Y-38935D01*
X67849Y-38964D01*
X67849Y-39121D01*
X67492Y-38807D02*
X67749Y-39192D01*
X67392Y-38921D02*
X67392Y-39221D01*
X67392Y-38935D02*
X67364Y-38921D01*
X67307Y-38921D01*
X67278Y-38935D01*
X67264Y-38950D01*
X67249Y-38978D01*
X67249Y-39064D01*
X67264Y-39092D01*
X67278Y-39107D01*
X67307Y-39121D01*
X67364Y-39121D01*
X67392Y-39107D01*
X67007Y-39107D02*
X67035Y-39121D01*
X67092Y-39121D01*
X67121Y-39107D01*
X67135Y-39078D01*
X67135Y-38964D01*
X67121Y-38935D01*
X67092Y-38921D01*
X67035Y-38921D01*
X67007Y-38935D01*
X66992Y-38964D01*
X66992Y-38992D01*
X67135Y-39021D01*
X66864Y-38921D02*
X66864Y-39221D01*
X66864Y-38935D02*
X66835Y-38921D01*
X66778Y-38921D01*
X66749Y-38935D01*
X66735Y-38950D01*
X66721Y-38978D01*
X66721Y-39064D01*
X66735Y-39092D01*
X66749Y-39107D01*
X66778Y-39121D01*
X66835Y-39121D01*
X66864Y-39107D01*
X66464Y-39121D02*
X66464Y-38964D01*
X66478Y-38935D01*
X66507Y-38921D01*
X66564Y-38921D01*
X66592Y-38935D01*
X66464Y-39107D02*
X66492Y-39121D01*
X66564Y-39121D01*
X66592Y-39107D01*
X66607Y-39078D01*
X66607Y-39050D01*
X66592Y-39021D01*
X66564Y-39007D01*
X66492Y-39007D01*
X66464Y-38992D01*
X66335Y-39107D02*
X66307Y-39121D01*
X66249Y-39121D01*
X66221Y-39107D01*
X66207Y-39078D01*
X66207Y-39064D01*
X66221Y-39035D01*
X66249Y-39021D01*
X66292Y-39021D01*
X66321Y-39007D01*
X66335Y-38978D01*
X66335Y-38964D01*
X66321Y-38935D01*
X66292Y-38921D01*
X66249Y-38921D01*
X66221Y-38935D01*
X66035Y-39121D02*
X66064Y-39107D01*
X66078Y-39078D01*
X66078Y-38821D01*
X65792Y-39121D02*
X65792Y-38964D01*
X65807Y-38935D01*
X65835Y-38921D01*
X65892Y-38921D01*
X65921Y-38935D01*
X65792Y-39107D02*
X65821Y-39121D01*
X65892Y-39121D01*
X65921Y-39107D01*
X65935Y-39078D01*
X65935Y-39050D01*
X65921Y-39021D01*
X65892Y-39007D01*
X65821Y-39007D01*
X65792Y-38992D01*
X65649Y-39121D02*
X65649Y-38821D01*
X65649Y-38935D02*
X65621Y-38921D01*
X65564Y-38921D01*
X65535Y-38935D01*
X65521Y-38950D01*
X65507Y-38978D01*
X65507Y-39064D01*
X65521Y-39092D01*
X65535Y-39107D01*
X65564Y-39121D01*
X65621Y-39121D01*
X65649Y-39107D01*
X65392Y-39107D02*
X65364Y-39121D01*
X65307Y-39121D01*
X65278Y-39107D01*
X65264Y-39078D01*
X65264Y-39064D01*
X65278Y-39035D01*
X65307Y-39021D01*
X65349Y-39021D01*
X65378Y-39007D01*
X65392Y-38978D01*
X65392Y-38964D01*
X65378Y-38935D01*
X65349Y-38921D01*
X65307Y-38921D01*
X65278Y-38935D01*
X64921Y-38807D02*
X65178Y-39192D01*
X64821Y-39121D02*
X64821Y-38921D01*
X64821Y-38978D02*
X64807Y-38950D01*
X64792Y-38935D01*
X64764Y-38921D01*
X64735Y-38921D01*
X64521Y-39107D02*
X64549Y-39121D01*
X64607Y-39121D01*
X64635Y-39107D01*
X64649Y-39078D01*
X64649Y-38964D01*
X64635Y-38935D01*
X64607Y-38921D01*
X64549Y-38921D01*
X64521Y-38935D01*
X64507Y-38964D01*
X64507Y-38992D01*
X64649Y-39021D01*
X64392Y-39107D02*
X64364Y-39121D01*
X64307Y-39121D01*
X64278Y-39107D01*
X64264Y-39078D01*
X64264Y-39064D01*
X64278Y-39035D01*
X64307Y-39021D01*
X64349Y-39021D01*
X64378Y-39007D01*
X64392Y-38978D01*
X64392Y-38964D01*
X64378Y-38935D01*
X64349Y-38921D01*
X64307Y-38921D01*
X64278Y-38935D01*
X64135Y-39121D02*
X64135Y-38921D01*
X64135Y-38821D02*
X64149Y-38835D01*
X64135Y-38850D01*
X64121Y-38835D01*
X64135Y-38821D01*
X64135Y-38850D01*
X64007Y-39107D02*
X63978Y-39121D01*
X63921Y-39121D01*
X63892Y-39107D01*
X63878Y-39078D01*
X63878Y-39064D01*
X63892Y-39035D01*
X63921Y-39021D01*
X63964Y-39021D01*
X63992Y-39007D01*
X64007Y-38978D01*
X64007Y-38964D01*
X63992Y-38935D01*
X63964Y-38921D01*
X63921Y-38921D01*
X63892Y-38935D01*
X63792Y-38921D02*
X63678Y-38921D01*
X63749Y-38821D02*
X63749Y-39078D01*
X63735Y-39107D01*
X63707Y-39121D01*
X63678Y-39121D01*
X63535Y-39121D02*
X63564Y-39107D01*
X63578Y-39092D01*
X63592Y-39064D01*
X63592Y-38978D01*
X63578Y-38950D01*
X63564Y-38935D01*
X63535Y-38921D01*
X63492Y-38921D01*
X63464Y-38935D01*
X63449Y-38950D01*
X63435Y-38978D01*
X63435Y-39064D01*
X63449Y-39092D01*
X63464Y-39107D01*
X63492Y-39121D01*
X63535Y-39121D01*
X63307Y-39121D02*
X63307Y-38921D01*
X63307Y-38978D02*
X63292Y-38950D01*
X63278Y-38935D01*
X63249Y-38921D01*
X63221Y-38921D01*
X63121Y-39007D02*
X62892Y-39007D01*
X62749Y-38921D02*
X62749Y-39221D01*
X62749Y-38935D02*
X62721Y-38921D01*
X62664Y-38921D01*
X62635Y-38935D01*
X62621Y-38950D01*
X62607Y-38978D01*
X62607Y-39064D01*
X62621Y-39092D01*
X62635Y-39107D01*
X62664Y-39121D01*
X62721Y-39121D01*
X62749Y-39107D01*
X62435Y-39121D02*
X62464Y-39107D01*
X62478Y-39078D01*
X62478Y-38821D01*
X62192Y-38921D02*
X62192Y-39121D01*
X62321Y-38921D02*
X62321Y-39078D01*
X62307Y-39107D01*
X62278Y-39121D01*
X62235Y-39121D01*
X62207Y-39107D01*
X62192Y-39092D01*
X61921Y-38921D02*
X61921Y-39164D01*
X61935Y-39192D01*
X61949Y-39207D01*
X61978Y-39221D01*
X62021Y-39221D01*
X62049Y-39207D01*
X61921Y-39107D02*
X61949Y-39121D01*
X62007Y-39121D01*
X62035Y-39107D01*
X62049Y-39092D01*
X62064Y-39064D01*
X62064Y-38978D01*
X62049Y-38950D01*
X62035Y-38935D01*
X62007Y-38921D01*
X61949Y-38921D01*
X61921Y-38935D01*
M02*
