G04 (created by PCBNEW (22-Jun-2014 BZR 4027)-stable) date Sun 29 Apr 2018 10:43:05 PM CDT*
%MOIN*%
G04 Gerber Fmt 3.4, Leading zero omitted, Abs format*
%FSLAX34Y34*%
G01*
G70*
G90*
G04 APERTURE LIST*
%ADD10C,0.00590551*%
%ADD11C,0.059*%
%ADD12C,0.069*%
%ADD13C,0.079*%
%ADD14C,0.01*%
%ADD15C,0.02*%
G04 APERTURE END LIST*
G54D10*
G54D11*
X65250Y-38000D03*
X67250Y-38000D03*
X65750Y-38000D03*
X69000Y-38000D03*
X64000Y-38000D03*
G54D12*
X62750Y-38000D03*
X70250Y-38000D03*
G54D13*
X71250Y-37500D03*
X71250Y-38500D03*
X61750Y-37500D03*
X61750Y-38500D03*
G54D14*
X62250Y-37250D02*
X62000Y-37250D01*
G54D15*
X62750Y-37250D02*
X62250Y-37250D01*
G54D14*
X62000Y-37250D02*
X61750Y-37500D01*
X62250Y-38750D02*
X62000Y-38750D01*
G54D15*
X62750Y-38750D02*
X62250Y-38750D01*
G54D14*
X62000Y-38750D02*
X61750Y-38500D01*
X62750Y-38000D02*
X62750Y-38750D01*
X62750Y-37250D02*
X62750Y-38000D01*
X70500Y-38750D02*
X71000Y-38750D01*
G54D15*
X70250Y-38750D02*
X70500Y-38750D01*
G54D14*
X71000Y-38750D02*
X71250Y-38500D01*
X70500Y-37250D02*
X71000Y-37250D01*
G54D15*
X70250Y-37250D02*
X70500Y-37250D01*
G54D14*
X71000Y-37250D02*
X71250Y-37500D01*
X70250Y-38000D02*
X70250Y-38750D01*
X70250Y-37250D02*
X70250Y-38000D01*
X69000Y-38000D02*
X69000Y-38750D01*
X69000Y-37250D02*
X69000Y-38000D01*
X67250Y-38000D02*
X67250Y-38750D01*
G54D15*
X67250Y-38750D02*
X69000Y-38750D01*
X69000Y-38750D02*
X70250Y-38750D01*
G54D14*
X67250Y-38000D02*
X67250Y-37250D01*
G54D15*
X67250Y-37250D02*
X69000Y-37250D01*
X69000Y-37250D02*
X70250Y-37250D01*
G54D14*
X65250Y-38000D02*
X65250Y-38750D01*
G54D15*
X65250Y-38750D02*
X64000Y-38750D01*
G54D14*
X64000Y-38000D02*
X64000Y-38750D01*
X64000Y-37250D02*
X64000Y-38000D01*
X65250Y-38000D02*
X65250Y-37250D01*
G54D15*
X65250Y-37250D02*
X64000Y-37250D01*
X64000Y-37250D02*
X62750Y-37250D01*
X62750Y-38750D02*
X64000Y-38750D01*
M02*
